<mxfile host="app.diagrams.net" modified="2023-11-18T11:40:48.892Z" agent="Mozilla/5.0 (Windows NT 10.0; Win64; x64) AppleWebKit/537.36 (KHTML, like Gecko) Chrome/119.0.0.0 Safari/537.36" etag="P_GiEZt3P49q1Y9jw9RT" version="22.1.3" type="device">
  <diagram id="Omh48rL1B8c3v4fKGW20" name="Page-1">
    <mxGraphModel dx="1434" dy="738" grid="1" gridSize="10" guides="1" tooltips="1" connect="1" arrows="1" fold="1" page="1" pageScale="1" pageWidth="827" pageHeight="1169" math="0" shadow="0">
      <root>
        <mxCell id="0" />
        <mxCell id="1" parent="0" />
        <mxCell id="EjnWbHj0ULErgjDfvysG-12" value="Delay&lt;br&gt;(Foreperiod)" style="edgeStyle=orthogonalEdgeStyle;rounded=0;orthogonalLoop=1;jettySize=auto;html=1;exitX=0;exitY=0.5;exitDx=0;exitDy=0;" edge="1" parent="1" source="EjnWbHj0ULErgjDfvysG-1" target="EjnWbHj0ULErgjDfvysG-3">
          <mxGeometry relative="1" as="geometry" />
        </mxCell>
        <mxCell id="EjnWbHj0ULErgjDfvysG-1" value="Ready" style="shape=trapezoid;perimeter=trapezoidPerimeter;whiteSpace=wrap;html=1;fixedSize=1;portConstraintRotation=0;rotation=0;fillColor=#e3c800;strokeColor=#B09500;fontColor=#000000;rounded=0;direction=west;size=20;" vertex="1" parent="1">
          <mxGeometry x="120" y="340" width="120" height="60" as="geometry" />
        </mxCell>
        <mxCell id="EjnWbHj0ULErgjDfvysG-2" value="Subject" style="shape=umlActor;verticalLabelPosition=bottom;verticalAlign=top;html=1;outlineConnect=0;" vertex="1" parent="1">
          <mxGeometry x="165" y="420" width="30" height="60" as="geometry" />
        </mxCell>
        <mxCell id="EjnWbHj0ULErgjDfvysG-13" value="Delay&lt;br&gt;(Reaction time)" style="edgeStyle=orthogonalEdgeStyle;rounded=0;orthogonalLoop=1;jettySize=auto;html=1;exitX=0;exitY=0.5;exitDx=0;exitDy=0;" edge="1" parent="1">
          <mxGeometry relative="1" as="geometry">
            <mxPoint x="429" y="370" as="sourcePoint" />
            <mxPoint x="529" y="370" as="targetPoint" />
          </mxGeometry>
        </mxCell>
        <mxCell id="EjnWbHj0ULErgjDfvysG-3" value="Go!" style="shape=trapezoid;perimeter=trapezoidPerimeter;whiteSpace=wrap;html=1;fixedSize=1;portConstraintRotation=0;rotation=0;fillColor=#6d8764;strokeColor=#3A5431;fontColor=#ffffff;rounded=0;size=20;direction=west;" vertex="1" parent="1">
          <mxGeometry x="320" y="340" width="120" height="60" as="geometry" />
        </mxCell>
        <mxCell id="EjnWbHj0ULErgjDfvysG-6" value="Subject" style="shape=umlActor;verticalLabelPosition=bottom;verticalAlign=top;html=1;outlineConnect=0;" vertex="1" parent="1">
          <mxGeometry x="365" y="420" width="30" height="60" as="geometry" />
        </mxCell>
        <mxCell id="EjnWbHj0ULErgjDfvysG-7" value="" style="ellipse;whiteSpace=wrap;html=1;aspect=fixed;" vertex="1" parent="1">
          <mxGeometry x="195" y="430" width="10" height="10" as="geometry" />
        </mxCell>
        <mxCell id="EjnWbHj0ULErgjDfvysG-8" value="" style="ellipse;whiteSpace=wrap;html=1;aspect=fixed;" vertex="1" parent="1">
          <mxGeometry x="395" y="430" width="10" height="10" as="geometry" />
        </mxCell>
        <mxCell id="EjnWbHj0ULErgjDfvysG-9" value="Go!" style="shape=trapezoid;perimeter=trapezoidPerimeter;whiteSpace=wrap;html=1;fixedSize=1;portConstraintRotation=0;rotation=0;fillColor=#6d8764;strokeColor=#3A5431;fontColor=#ffffff;rounded=0;size=20;direction=west;" vertex="1" parent="1">
          <mxGeometry x="520" y="340" width="120" height="60" as="geometry" />
        </mxCell>
        <mxCell id="EjnWbHj0ULErgjDfvysG-10" value="Subject" style="shape=umlActor;verticalLabelPosition=bottom;verticalAlign=top;html=1;outlineConnect=0;" vertex="1" parent="1">
          <mxGeometry x="565" y="420" width="30" height="60" as="geometry" />
        </mxCell>
        <mxCell id="EjnWbHj0ULErgjDfvysG-11" value="" style="ellipse;whiteSpace=wrap;html=1;aspect=fixed;fillColor=#fa6800;strokeColor=#C73500;fontColor=#000000;" vertex="1" parent="1">
          <mxGeometry x="595" y="430" width="10" height="10" as="geometry" />
        </mxCell>
      </root>
    </mxGraphModel>
  </diagram>
</mxfile>
